<mxfile host="Electron" agent="Mozilla/5.0 (Windows NT 10.0; Win64; x64) AppleWebKit/537.36 (KHTML, like Gecko) draw.io/26.2.15 Chrome/134.0.6998.205 Electron/35.2.1 Safari/537.36" version="26.2.15">
  <diagram name="Страница — 1" id="ffYWQj3neKHFoNnD5gxy">
    <mxGraphModel dx="1678" dy="999" grid="0" gridSize="10" guides="1" tooltips="1" connect="1" arrows="1" fold="1" page="0" pageScale="1" pageWidth="827" pageHeight="1169" math="0" shadow="0">
      <root>
        <mxCell id="0" />
        <mxCell id="1" parent="0" />
        <mxCell id="jAMElrSN2h_9_gW9iPhr-1" value="Начало" style="rounded=1;whiteSpace=wrap;html=1;fontSize=12;glass=0;strokeWidth=1;shadow=0;spacing=0;textShadow=1;arcSize=50;" vertex="1" parent="1">
          <mxGeometry x="340" y="50" width="120" height="40" as="geometry" />
        </mxCell>
        <mxCell id="jAMElrSN2h_9_gW9iPhr-2" value="" style="endArrow=none;html=1;rounded=0;entryX=0.533;entryY=1.015;entryDx=0;entryDy=0;entryPerimeter=0;" edge="1" parent="1">
          <mxGeometry width="50" height="50" relative="1" as="geometry">
            <mxPoint x="399.94" y="229.39999999999998" as="sourcePoint" />
            <mxPoint x="399.90000000000003" y="190" as="targetPoint" />
          </mxGeometry>
        </mxCell>
        <mxCell id="jAMElrSN2h_9_gW9iPhr-3" value="Заполнение формы регистрации" style="rounded=0;whiteSpace=wrap;html=1;" vertex="1" parent="1">
          <mxGeometry x="340" y="230" width="120" height="60" as="geometry" />
        </mxCell>
        <mxCell id="jAMElrSN2h_9_gW9iPhr-4" value="" style="endArrow=none;html=1;rounded=0;entryX=0.533;entryY=1.015;entryDx=0;entryDy=0;entryPerimeter=0;" edge="1" parent="1">
          <mxGeometry width="50" height="50" relative="1" as="geometry">
            <mxPoint x="399.84000000000003" y="329.4" as="sourcePoint" />
            <mxPoint x="399.80000000000007" y="290" as="targetPoint" />
          </mxGeometry>
        </mxCell>
        <mxCell id="jAMElrSN2h_9_gW9iPhr-5" value="Отправка формы" style="rounded=0;whiteSpace=wrap;html=1;" vertex="1" parent="1">
          <mxGeometry x="340" y="330" width="120" height="60" as="geometry" />
        </mxCell>
        <mxCell id="jAMElrSN2h_9_gW9iPhr-6" value="" style="endArrow=none;html=1;rounded=0;entryX=0.533;entryY=1.015;entryDx=0;entryDy=0;entryPerimeter=0;" edge="1" parent="1">
          <mxGeometry width="50" height="50" relative="1" as="geometry">
            <mxPoint x="399.84000000000003" y="429.4" as="sourcePoint" />
            <mxPoint x="399.80000000000007" y="390" as="targetPoint" />
          </mxGeometry>
        </mxCell>
        <mxCell id="jAMElrSN2h_9_gW9iPhr-7" value="Форма валидна?" style="rhombus;whiteSpace=wrap;html=1;" vertex="1" parent="1">
          <mxGeometry x="340" y="430" width="120" height="80" as="geometry" />
        </mxCell>
        <mxCell id="jAMElrSN2h_9_gW9iPhr-8" value="" style="endArrow=none;html=1;rounded=0;entryX=0.533;entryY=1.015;entryDx=0;entryDy=0;entryPerimeter=0;" edge="1" parent="1">
          <mxGeometry width="50" height="50" relative="1" as="geometry">
            <mxPoint x="399.84000000000003" y="549.4" as="sourcePoint" />
            <mxPoint x="399.80000000000007" y="510" as="targetPoint" />
          </mxGeometry>
        </mxCell>
        <mxCell id="jAMElrSN2h_9_gW9iPhr-9" value="Да" style="text;html=1;align=center;verticalAlign=middle;whiteSpace=wrap;rounded=0;" vertex="1" parent="1">
          <mxGeometry x="350" y="510" width="60" height="30" as="geometry" />
        </mxCell>
        <mxCell id="jAMElrSN2h_9_gW9iPhr-10" value="Нет" style="text;html=1;align=center;verticalAlign=middle;whiteSpace=wrap;rounded=0;" vertex="1" parent="1">
          <mxGeometry x="450" y="440" width="60" height="30" as="geometry" />
        </mxCell>
        <mxCell id="jAMElrSN2h_9_gW9iPhr-11" value="Вывод формы регистрации в системе" style="rounded=0;whiteSpace=wrap;html=1;" vertex="1" parent="1">
          <mxGeometry x="340" y="130" width="120" height="60" as="geometry" />
        </mxCell>
        <mxCell id="jAMElrSN2h_9_gW9iPhr-12" value="" style="endArrow=none;html=1;rounded=0;entryX=0.533;entryY=1.015;entryDx=0;entryDy=0;entryPerimeter=0;" edge="1" parent="1">
          <mxGeometry width="50" height="50" relative="1" as="geometry">
            <mxPoint x="399.75" y="130" as="sourcePoint" />
            <mxPoint x="399.71000000000004" y="90.59999999999997" as="targetPoint" />
          </mxGeometry>
        </mxCell>
        <mxCell id="jAMElrSN2h_9_gW9iPhr-13" value="" style="endArrow=classic;html=1;rounded=0;exitX=1;exitY=0.5;exitDx=0;exitDy=0;" edge="1" parent="1" source="jAMElrSN2h_9_gW9iPhr-7">
          <mxGeometry width="50" height="50" relative="1" as="geometry">
            <mxPoint x="630" y="390" as="sourcePoint" />
            <mxPoint x="400" y="110" as="targetPoint" />
            <Array as="points">
              <mxPoint x="560" y="470" />
              <mxPoint x="560" y="110" />
            </Array>
          </mxGeometry>
        </mxCell>
        <mxCell id="jAMElrSN2h_9_gW9iPhr-14" value="Создание пользователя с атрибутом is_active=0" style="rounded=0;whiteSpace=wrap;html=1;" vertex="1" parent="1">
          <mxGeometry x="340" y="550" width="120" height="60" as="geometry" />
        </mxCell>
        <mxCell id="jAMElrSN2h_9_gW9iPhr-15" value="Разрешение пользователю доступа к системе" style="rounded=0;whiteSpace=wrap;html=1;" vertex="1" parent="1">
          <mxGeometry x="340" y="870" width="120" height="60" as="geometry" />
        </mxCell>
        <mxCell id="jAMElrSN2h_9_gW9iPhr-16" value="" style="endArrow=none;html=1;rounded=0;entryX=0.533;entryY=1.015;entryDx=0;entryDy=0;entryPerimeter=0;" edge="1" parent="1">
          <mxGeometry width="50" height="50" relative="1" as="geometry">
            <mxPoint x="399.70000000000005" y="649.4" as="sourcePoint" />
            <mxPoint x="399.6600000000001" y="610" as="targetPoint" />
          </mxGeometry>
        </mxCell>
        <mxCell id="jAMElrSN2h_9_gW9iPhr-17" value="Конец" style="rounded=1;whiteSpace=wrap;html=1;fontSize=12;glass=0;strokeWidth=1;shadow=0;spacing=0;textShadow=1;arcSize=50;" vertex="1" parent="1">
          <mxGeometry x="340" y="970" width="120" height="40" as="geometry" />
        </mxCell>
        <mxCell id="jAMElrSN2h_9_gW9iPhr-18" value="" style="endArrow=none;html=1;rounded=0;entryX=0.533;entryY=1.015;entryDx=0;entryDy=0;entryPerimeter=0;" edge="1" parent="1">
          <mxGeometry width="50" height="50" relative="1" as="geometry">
            <mxPoint x="400.04" y="969.4" as="sourcePoint" />
            <mxPoint x="400.00000000000006" y="930" as="targetPoint" />
          </mxGeometry>
        </mxCell>
        <mxCell id="jAMElrSN2h_9_gW9iPhr-19" value="Вывод ошибок в форме" style="rounded=0;whiteSpace=wrap;html=1;" vertex="1" parent="1">
          <mxGeometry x="500" y="330" width="120" height="60" as="geometry" />
        </mxCell>
        <mxCell id="jAMElrSN2h_9_gW9iPhr-21" value="Заявка подтверждена?" style="rhombus;whiteSpace=wrap;html=1;" vertex="1" parent="1">
          <mxGeometry x="340" y="750" width="120" height="80" as="geometry" />
        </mxCell>
        <mxCell id="jAMElrSN2h_9_gW9iPhr-22" value="" style="endArrow=none;html=1;rounded=0;entryX=0.533;entryY=1.015;entryDx=0;entryDy=0;entryPerimeter=0;" edge="1" parent="1">
          <mxGeometry width="50" height="50" relative="1" as="geometry">
            <mxPoint x="399.70000000000005" y="869.4" as="sourcePoint" />
            <mxPoint x="399.6600000000001" y="830" as="targetPoint" />
          </mxGeometry>
        </mxCell>
        <mxCell id="jAMElrSN2h_9_gW9iPhr-23" value="Да" style="text;html=1;align=center;verticalAlign=middle;whiteSpace=wrap;rounded=0;" vertex="1" parent="1">
          <mxGeometry x="340" y="830" width="60" height="30" as="geometry" />
        </mxCell>
        <mxCell id="jAMElrSN2h_9_gW9iPhr-24" value="Ожидание пользователем подтверждения его заявки" style="rounded=0;whiteSpace=wrap;html=1;" vertex="1" parent="1">
          <mxGeometry x="340" y="650" width="120" height="60" as="geometry" />
        </mxCell>
        <mxCell id="jAMElrSN2h_9_gW9iPhr-26" value="" style="endArrow=none;html=1;rounded=0;entryX=0.533;entryY=1.015;entryDx=0;entryDy=0;entryPerimeter=0;" edge="1" parent="1">
          <mxGeometry width="50" height="50" relative="1" as="geometry">
            <mxPoint x="400.04" y="749.4" as="sourcePoint" />
            <mxPoint x="400.00000000000006" y="710" as="targetPoint" />
          </mxGeometry>
        </mxCell>
        <mxCell id="jAMElrSN2h_9_gW9iPhr-27" value="" style="endArrow=classic;html=1;rounded=0;exitX=1;exitY=0.5;exitDx=0;exitDy=0;" edge="1" parent="1" source="jAMElrSN2h_9_gW9iPhr-21">
          <mxGeometry width="50" height="50" relative="1" as="geometry">
            <mxPoint x="580" y="720" as="sourcePoint" />
            <mxPoint x="400" y="630" as="targetPoint" />
            <Array as="points">
              <mxPoint x="530" y="790" />
              <mxPoint x="530" y="630" />
            </Array>
          </mxGeometry>
        </mxCell>
        <mxCell id="jAMElrSN2h_9_gW9iPhr-28" value="Нет" style="text;html=1;align=center;verticalAlign=middle;whiteSpace=wrap;rounded=0;" vertex="1" parent="1">
          <mxGeometry x="450" y="760" width="60" height="30" as="geometry" />
        </mxCell>
      </root>
    </mxGraphModel>
  </diagram>
</mxfile>
